<svg width="45" height="45" viewBox="0 0 45 45" fill="none" xmlns="http://www.w3.org/2000/svg">
<path d="M38.4375 4.68751H6.5625L9.375 36.5625L22.5 40.3125L35.625 36.5625L38.4375 4.68751Z" fill="white"/>
<path d="M22.5 7.50001V37.4063L33 34.4063L35.3437 7.50001H22.5Z" fill="white"/>
<path d="M31.0312 12.1875H22.5V15.9375H27.0937L26.8125 19.6875H22.5V23.4375H26.625L26.3438 27.6562L22.5 28.9687V32.9062L29.9063 30.4687L30.5625 19.6875L31.0312 12.1875Z" fill="#082032"/>
<path d="M22.5 12.1875V15.9375H14.1563L13.875 12.1875H22.5ZM18.1875 19.6875L18.375 23.4375H22.5V19.6875H18.1875ZM18.5625 25.3125H14.8125L15.0938 30.4687L22.5 32.9062V28.9687L18.6562 27.6562L18.5625 25.3125Z" fill="#082032"/>
</svg>
