<svg width="45" height="45" viewBox="0 0 45 45" fill="none" xmlns="http://www.w3.org/2000/svg">
<path d="M4.87461 19.8563L15.7121 9L18.8809 12.1875C18.4309 13.7812 19.1621 15.525 20.6246 16.3687V26.7563C19.4996 27.3938 18.7496 28.6125 18.7496 30C18.7496 30.9946 19.1447 31.9484 19.848 32.6517C20.5512 33.3549 21.505 33.75 22.4996 33.75C23.4942 33.75 24.448 33.3549 25.1513 32.6517C25.8545 31.9484 26.2496 30.9946 26.2496 30C26.2496 28.6125 25.4996 27.3938 24.3746 26.7563V17.6437L28.2559 21.5625C28.1246 21.8438 28.1246 22.1625 28.1246 22.5C28.1246 23.4946 28.5197 24.4484 29.223 25.1516C29.9262 25.8549 30.8801 26.25 31.8746 26.25C32.8692 26.25 33.823 25.8549 34.5263 25.1516C35.2295 24.4484 35.6246 23.4946 35.6246 22.5C35.6246 21.5054 35.2295 20.5516 34.5263 19.8484C33.823 19.1451 32.8692 18.75 31.8746 18.75C31.5371 18.75 31.2184 18.75 30.9371 18.8812L26.1184 14.0625C26.3512 13.1941 26.2609 12.2707 25.8644 11.4637C25.4678 10.6568 24.7919 10.0212 23.9621 9.675C23.1559 9.375 22.3121 9.3 21.5621 9.50625L18.3746 6.3375L19.8559 4.875C21.3184 3.39375 23.6809 3.39375 25.1434 4.875L40.1246 19.8563C41.6059 21.3188 41.6059 23.6812 40.1246 25.1437L25.1434 40.125C23.6809 41.6063 21.3184 41.6063 19.8559 40.125L4.87461 25.1437C3.39336 23.6812 3.39336 21.3188 4.87461 19.8563Z" fill="#00E35D"/>
</svg>
