<svg width="45" height="45" viewBox="0 0 45 45" fill="none" xmlns="http://www.w3.org/2000/svg">
<g clip-path="url(#clip0_1848_2)">
<path d="M39.7673 9.16383C32.4024 -0.373361 18.6996 -2.13399 9.16206 5.2323C-0.374077 12.5986 -2.13294 26.3014 5.23334 35.8376C12.601 45.3734 26.3049 47.1312 35.8397 39.7635C45.3719 32.3972 47.1312 18.6986 39.7673 9.16383Z" fill="url(#paint0_linear_1848_2)"/>
<path d="M32.0193 8.49516C31.2682 8.55518 30.556 8.85406 29.9869 9.34805C29.3209 9.92632 28.8957 10.7333 28.7955 11.6096C28.6953 12.486 28.9272 13.3681 29.4455 14.0818C29.9631 14.7959 30.7296 15.29 31.5936 15.4667C32.4576 15.6434 33.3565 15.4898 34.1129 15.0363H34.1136L34.1684 15.0912C34.4175 14.9484 34.6493 14.7773 34.8592 14.5814C35.5067 13.8965 35.8628 12.9869 35.8526 12.0445C35.8424 11.1021 35.4666 10.2005 34.8044 9.52981V9.5291L31.6952 12.619L31.6403 12.5645L34.7496 9.4732C34.3897 9.1262 33.9602 8.85963 33.4895 8.69114C33.0188 8.52265 32.5177 8.45608 32.0193 8.49586V8.49516ZM27.9257 13.5531C26.4351 13.5506 24.0012 15.2402 18.0584 21.183L18.088 21.2133C18.0556 21.202 18.0229 21.201 18.0229 21.201L15.7856 23.4186C15.7281 23.4733 15.6901 23.5452 15.6773 23.6235C15.6645 23.7017 15.6775 23.782 15.7146 23.8521C15.7516 23.9223 15.8105 23.9784 15.8823 24.0119C15.9542 24.0455 16.035 24.0547 16.1125 24.0381L19.9495 23.2196C19.9664 23.2037 19.9778 23.1828 19.9818 23.1599L20.0669 23.2478L18.7591 24.545H18.6958L10.9312 32.3708L13.4224 34.7699C13.492 34.8327 13.5799 34.8716 13.6733 34.881C13.7666 34.8905 13.8605 34.8699 13.9413 34.8223C14.0228 34.775 14.0881 34.7042 14.1286 34.6191C14.169 34.534 14.1828 34.4386 14.168 34.3455L13.8042 32.7635C13.7815 32.7317 13.7693 32.6936 13.7693 32.6545C13.7693 32.6155 13.7815 32.5774 13.8042 32.5455C17.2052 30.9242 20.368 28.8443 23.2042 26.364L21.6099 24.769L21.6401 24.7641L20.6944 23.8187L20.7549 23.7575L20.8189 23.8229L20.7858 23.8549L23.295 26.4189V26.4178C28.1043 21.8637 31.518 18.2029 30.6303 15.7391C30.5899 15.4445 30.453 15.1715 30.2411 14.9629V14.9643C30.1873 14.9242 30.1306 14.8882 30.0713 14.8567C30.0421 14.8257 30.0165 14.7941 29.9855 14.7639L29.9623 14.7871C29.8972 14.7473 29.8287 14.7132 29.7577 14.6851L29.8593 14.5825C29.2279 14.02 28.7062 13.5545 27.9257 13.5524V13.5531ZM10.8771 32.4176L9.05913 34.2359V34.2373C8.9939 34.2777 8.9432 34.3377 8.91432 34.4088C8.88544 34.4799 8.87989 34.5583 8.89847 34.6328C8.9164 34.7072 8.95735 34.7741 9.01548 34.8239C9.07361 34.8737 9.14597 34.9039 9.22226 34.9102L13.6773 35.2178L10.8771 32.4176Z" fill="white"/>
<path d="M32.3266 8.19492C31.3062 8.19365 30.3264 8.59398 29.5988 9.30937C29.0811 9.83917 28.7267 10.5066 28.5777 11.2323C28.4287 11.9579 28.4915 12.711 28.7586 13.4019C27.0918 12.6882 24.8369 13.9328 17.8229 20.9454C17.8179 20.9562 17.8136 20.9672 17.8099 20.9784C17.7955 20.9849 17.7816 20.9922 17.768 21.0002L15.55 23.2376C15.4437 23.3419 15.3739 23.4778 15.3509 23.625C15.3279 23.7721 15.353 23.9228 15.4224 24.0546C15.4844 24.1589 15.5721 24.2455 15.6772 24.3061C15.7823 24.3666 15.9012 24.3992 16.0225 24.4005L16.1326 24.3292L19.0941 23.6974L17.6773 25.1272C17.6691 25.146 17.6627 25.1655 17.6583 25.1856L10.715 32.1462C10.6873 32.1694 10.6644 32.1979 10.6475 32.2298L8.85944 34.0193C8.77032 34.1134 8.70943 34.2306 8.6837 34.3575C8.65796 34.4845 8.66843 34.6162 8.71389 34.7375C8.76051 34.8581 8.83956 34.9635 8.9423 35.042C9.04504 35.1204 9.16747 35.169 9.29608 35.1823L13.7321 35.4916C13.8078 35.465 13.8722 35.4136 13.9149 35.3457C13.953 35.2927 13.9736 35.2291 13.9736 35.1638C13.9736 35.0985 13.953 35.0349 13.9149 34.9819L13.9058 34.9731C14.0015 34.9228 14.0859 34.8534 14.1536 34.7692C14.2249 34.6767 14.2746 34.5696 14.2993 34.4555C14.324 34.3414 14.323 34.2233 14.2964 34.1096L13.9504 32.6377C17.2693 31.0515 20.379 29.0605 23.2085 26.71C23.2359 26.7256 23.2652 26.7377 23.2956 26.7462C23.3849 26.7395 23.4686 26.7012 23.5319 26.6379C28.2956 22.1273 31.0958 19.0364 31.0958 16.5825C31.1061 16.2421 31.0548 15.9027 30.9442 15.5805C31.3735 15.7586 31.8315 15.8574 32.296 15.8723L32.2907 15.8737C32.9305 15.8542 33.5558 15.6792 34.1129 15.364C34.1133 15.3641 34.1138 15.3642 34.1143 15.3643C34.1864 15.3859 34.264 15.379 34.3312 15.345C34.6 15.1867 34.845 14.9912 35.0589 14.7642C35.4215 14.4085 35.7095 13.9841 35.9062 13.5158C36.1028 13.0475 36.2042 12.5447 36.2043 12.0368C36.2042 11.5289 36.1029 11.0261 35.9063 10.5578C35.7097 10.0895 35.4218 9.66512 35.0593 9.30937C35.0463 9.29762 35.0325 9.28692 35.0178 9.27738C34.2941 8.5825 33.3295 8.1947 32.3262 8.19527L32.3266 8.19492ZM32.296 8.81789C33.0065 8.82213 33.6961 9.05842 34.2598 9.49078L31.4234 12.3444C31.4137 12.3552 31.4047 12.3667 31.3967 12.3789C31.3456 12.4306 31.3156 12.4996 31.3127 12.5722C31.3127 12.6161 31.3226 12.6595 31.3416 12.699C31.3607 12.7386 31.3884 12.7734 31.4227 12.8007H31.4234L33.568 14.9453C32.9809 15.2012 32.3303 15.274 31.7013 15.154C31.0722 15.034 30.494 14.7268 30.0425 14.2727C29.1333 13.3587 28.8697 11.9862 29.3559 10.7954C29.8421 9.60363 31.0012 8.82492 32.296 8.81789ZM34.7991 10.0245C35.2629 10.5856 35.5157 11.2913 35.5139 12.0192C35.5125 12.872 35.1726 13.6894 34.5689 14.2917C34.4478 14.4056 34.3188 14.5107 34.1828 14.6064L32.4521 12.9023L32.1135 12.5638L32.2067 12.4706L34.7988 10.0237L34.7991 10.0245ZM34.6705 11.4986C34.6068 11.4784 34.5381 11.4823 34.4771 11.5094C34.4168 11.5407 34.3713 11.5945 34.3505 11.6592C34.3404 11.6915 34.3367 11.7255 34.3397 11.7592C34.3427 11.793 34.3524 11.8258 34.3681 11.8557C34.4306 11.9871 34.4552 12.1332 34.4393 12.2778C34.4233 12.4224 34.3674 12.5596 34.2778 12.6742C34.2548 12.6963 34.2369 12.723 34.2251 12.7526C34.2132 12.7822 34.2078 12.8139 34.2092 12.8457C34.2106 12.9104 34.2338 12.9723 34.2778 13.0187C34.3246 13.0366 34.3764 13.0366 34.4233 13.0187C34.4656 13.0293 34.5099 13.0281 34.5516 13.0152C34.5932 13.0024 34.6305 12.9784 34.6596 12.9459C34.8091 12.7625 34.9039 12.5405 34.9328 12.3056C34.9617 12.0707 34.9237 11.8323 34.823 11.6181V11.6195C34.7888 11.5618 34.7344 11.5188 34.6705 11.4986ZM27.8934 13.8621C28.3177 13.8762 28.726 14.0274 29.0571 14.2931C28.7003 14.3445 28.3697 14.5097 28.1145 14.7642L20.0964 22.7464L18.5228 21.1728C22.6811 17.0343 25.2236 14.8725 26.8042 14.1641C27.1298 13.9587 27.5085 13.8539 27.8934 13.8621ZM29.2873 14.9027C29.5566 14.9027 29.8148 15.0094 30.0056 15.1995C30.1071 15.2946 30.1872 15.4104 30.2405 15.539C30.2937 15.6675 30.319 15.806 30.3146 15.9451C30.31 16.0837 30.2769 16.2199 30.2173 16.3451C30.1577 16.4703 30.0729 16.5819 29.9683 16.6728L21.4429 24.0929L20.5229 23.1729L28.5691 15.1995C28.7599 15.0096 29.0181 14.9027 29.2873 14.9027ZM30.3399 17.2575C29.7458 19.6137 26.5968 22.8062 23.3132 25.9084L21.9854 24.5819L30.3399 17.2575ZM18.0591 21.6376L18.1555 21.7325L19.3905 22.9676L16.0049 23.6918L18.0591 21.6376ZM20.0957 23.6907L20.0971 23.6921L20.5078 24.1123C20.5095 24.1222 20.5116 24.132 20.5141 24.1418L20.5415 24.146L20.6287 24.2353L20.917 24.5306L19.0238 24.7627L20.0957 23.6907ZM21.4552 25.1237L22.7131 26.3809C19.9316 28.6938 16.8794 30.6601 13.6235 32.2365C13.5178 32.2869 13.4328 32.3723 13.383 32.4782C13.3331 32.5842 13.3216 32.7041 13.3503 32.8177L13.7142 34.3997C13.7276 34.4183 13.7348 34.4406 13.7348 34.4635C13.7348 34.4864 13.7276 34.5087 13.7142 34.5273C13.6942 34.5452 13.6683 34.5552 13.6414 34.5552C13.6145 34.5552 13.5886 34.5452 13.5686 34.5273L11.4234 32.3645L18.0356 25.6553L21.4552 25.1237ZM10.9319 32.837L11.2374 33.1232L12.8166 34.7024L9.29537 34.4746L10.9319 32.837Z" fill="url(#paint1_linear_1848_2)"/>
</g>
<defs>
<linearGradient id="paint0_linear_1848_2" x1="22.4994" y1="0.680359" x2="22.4994" y2="44.3177" gradientUnits="userSpaceOnUse">
<stop stop-color="#2AF598"/>
<stop offset="1" stop-color="#009EFD"/>
</linearGradient>
<linearGradient id="paint1_linear_1848_2" x1="22.4371" y1="8.19492" x2="22.4371" y2="35.4916" gradientUnits="userSpaceOnUse">
<stop stop-color="#2AF598"/>
<stop offset="1" stop-color="#009EFD"/>
</linearGradient>
<clipPath id="clip0_1848_2">
<rect width="45" height="45" fill="white"/>
</clipPath>
</defs>
</svg>
