<svg width="45" height="45" viewBox="0 0 45 45" fill="none" xmlns="http://www.w3.org/2000/svg">
<path d="M20.3906 9.14062C20.3906 9.91791 19.7617 10.5469 18.9844 10.5469C18.2071 10.5469 17.5781 9.91791 17.5781 9.14062C17.5781 8.36334 18.2071 7.73438 18.9844 7.73438C19.7617 7.73438 20.3906 8.36334 20.3906 9.14062Z" fill="url(#paint0_linear_1401_1126)"/>
<path d="M27.4219 35.8594C27.4219 36.6367 26.7929 37.2656 26.0156 37.2656C25.2383 37.2656 24.6094 36.6367 24.6094 35.8594C24.6094 35.0821 25.2383 34.4531 26.0156 34.4531C26.7929 34.4531 27.4219 35.0821 27.4219 35.8594Z" fill="url(#paint1_linear_1401_1126)"/>
<path d="M35.8594 14.7656H30.9375V9.14062C30.9375 6.427 28.7292 4.21875 26.0156 4.21875H18.9844C16.2708 4.21875 14.0625 6.427 14.0625 9.14062V14.7656H9.14062C6.427 14.7656 4.21875 16.9739 4.21875 19.6875V25.3125C4.21875 28.0261 6.427 30.2344 9.14062 30.2344H14.0625V35.8594C14.0625 38.573 16.2708 40.7812 18.9844 40.7812H26.0156C28.7292 40.7812 30.9375 38.573 30.9375 35.8594V30.2344H35.8594C38.573 30.2344 40.7812 28.0261 40.7812 25.3125V19.6875C40.7812 16.9739 38.573 14.7656 35.8594 14.7656ZM9.14062 28.8281C7.20154 28.8281 5.625 27.2516 5.625 25.3125V21.7969H10.5469V20.3906H5.625V19.6875C5.625 19.4458 5.64972 19.2123 5.69641 18.9844H16.1719V17.5781H6.34735C6.99005 16.7294 7.99805 16.1719 9.14062 16.1719H20.3906V14.7656H15.4688V9.14062C15.4688 7.20154 17.0453 5.625 18.9844 5.625H26.0156C27.9547 5.625 29.5312 7.20154 29.5312 9.14062V19.6875C29.5312 20.8493 28.5837 21.7969 27.4219 21.7969H17.5781C15.639 21.7969 14.0625 23.3734 14.0625 25.3125V28.8281H9.14062ZM35.8594 28.8281H24.6094V30.2344H29.5312V35.8594C29.5312 37.7985 27.9547 39.375 26.0156 39.375H18.9844C17.0453 39.375 15.4688 37.7985 15.4688 35.8594V25.3125C15.4688 24.1507 16.4163 23.2031 17.5781 23.2031H27.4219C29.361 23.2031 30.9375 21.6266 30.9375 19.6875V16.1719H35.8594C37.7985 16.1719 39.375 17.7484 39.375 19.6875V23.2031H34.4531V24.6094H39.375V25.3125C39.375 25.5542 39.3503 25.7877 39.3036 26.0156H28.8281V27.4219H38.6526C38.0127 28.2706 37.0047 28.8281 35.8594 28.8281Z" fill="url(#paint2_linear_1401_1126)"/>
<defs>
<linearGradient id="paint0_linear_1401_1126" x1="51.0205" y1="20.8674" x2="51.0205" y2="27.6626" gradientUnits="userSpaceOnUse">
<stop stop-color="#95FACC"/>
<stop offset="1" stop-color="#6EC8FF"/>
</linearGradient>
<linearGradient id="paint1_linear_1401_1126" x1="69.917" y1="92.8346" x2="69.917" y2="99.8301" gradientUnits="userSpaceOnUse">
<stop stop-color="#95FACC"/>
<stop offset="1" stop-color="#6EC8FF"/>
</linearGradient>
<linearGradient id="paint2_linear_1401_1126" x1="22.5" y1="4.68281" x2="22.5" y2="39.9888" gradientUnits="userSpaceOnUse">
<stop stop-color="#2AF598"/>
<stop offset="1" stop-color="#009EFD"/>
</linearGradient>
</defs>
</svg>
