<svg width="45" height="45" viewBox="0 0 45 45" fill="none" xmlns="http://www.w3.org/2000/svg">
<path d="M11.9194 16.875C6.975 18.15 3.75 20.3344 3.75 22.8281C3.75 26.7788 12.0094 30 22.2188 30C23.6063 30 24.5813 29.9269 25.875 29.8181" stroke="white" stroke-width="2" stroke-linecap="round" stroke-linejoin="round"/>
<path d="M18.4447 29.8125C17.6703 28.695 16.9335 27.6881 16.2322 26.4375C11.0741 17.25 9.69221 8.11875 13.176 6.05062C15.3322 4.74375 18.8891 6.525 22.5022 10.2769" stroke="white" stroke-width="2" stroke-linecap="round" stroke-linejoin="round"/>
<path d="M12.0548 28.8506C10.7386 33.8906 11.0048 37.6931 13.1048 38.9662C16.448 40.9912 23.2055 35.295 28.1855 26.2087C28.8605 24.9525 29.4661 23.7169 30.0005 22.5" stroke="white" stroke-width="2" stroke-linecap="round" stroke-linejoin="round"/>
<path d="M22.5 34.725C26.115 38.475 29.6569 40.2563 31.8338 38.9494C35.3025 36.8831 33.9356 27.7519 28.7719 18.5625C28.0519 17.2931 27.315 16.305 26.5594 15.1875" stroke="white" stroke-width="2" stroke-linecap="round" stroke-linejoin="round"/>
<path d="M33.1125 28.125C38.01 26.8369 41.25 24.6563 41.25 22.17C41.25 18.2138 32.985 15 22.7906 15C21.39 15 20.4169 15.0544 19.125 15.1631" stroke="white" stroke-width="2" stroke-linecap="round" stroke-linejoin="round"/>
<path d="M15 22.5C15.5344 21.2625 16.1381 20.0475 16.815 18.7912C21.7781 9.70875 28.5394 3.9975 31.9012 6.03937C33.9825 7.3125 34.2675 11.1131 32.9512 16.1512M22.9875 22.5281H22.9687C22.95 22.7719 22.7437 22.9781 22.4812 22.9781C22.3557 22.9719 22.2373 22.918 22.1501 22.8274C22.063 22.7368 22.0138 22.6163 22.0125 22.4906C22.0125 22.2281 22.2187 22.0219 22.4625 22.0219H22.4438C22.6875 22.0031 22.9125 22.2281 22.9125 22.4719" stroke="white" stroke-width="2" stroke-linecap="round" stroke-linejoin="round"/>
</svg>
