<svg width="45" height="45" viewBox="0 0 45 45" fill="none" xmlns="http://www.w3.org/2000/svg">
<path d="M39.5188 10.8035L24.3629 2.28515C23.2133 1.6418 21.7859 1.6418 20.6363 2.28515L5.48047 10.8035C4.32031 11.4539 3.59961 12.6738 3.59961 13.9816V31.0184C3.59961 32.3262 4.32031 33.5461 5.48047 34.1965L20.6363 42.7148C21.2129 43.0383 21.8563 43.2 22.4996 43.2C23.143 43.2 23.7863 43.0383 24.3629 42.7148L39.5188 34.1965C40.6789 33.5461 41.3996 32.3262 41.3996 31.0184V13.9816C41.3996 12.6738 40.6789 11.4539 39.5188 10.8035ZM22.4996 33.3C16.5441 33.3 11.6996 28.4555 11.6996 22.5C11.6996 16.5445 16.5441 11.7 22.4996 11.7C25.9027 11.7 29.0457 13.2785 31.0883 15.968L27.1438 18.2496C25.959 16.9523 24.275 16.2 22.4996 16.2C19.0262 16.2 16.1996 19.0266 16.1996 22.5C16.1996 25.9734 19.0262 28.8 22.4996 28.8C24.275 28.8 25.959 28.0477 27.1438 26.7504L31.0883 29.032C29.0457 31.7215 25.9027 33.3 22.4996 33.3ZM33.2996 23.4H31.4996V25.2H29.6996V23.4H27.8996V21.6H29.6996V19.8H31.4996V21.6H33.2996V23.4ZM39.5996 23.4H37.7996V25.2H35.9996V23.4H34.1996V21.6H35.9996V19.8H37.7996V21.6H39.5996V23.4Z" fill="url(#paint0_linear_1401_1123)"/>
<defs>
<linearGradient id="paint0_linear_1401_1123" x1="22.4996" y1="1.80264" x2="22.4996" y2="43.2" gradientUnits="userSpaceOnUse">
<stop stop-color="#2AF598"/>
<stop offset="1" stop-color="#009EFD"/>
</linearGradient>
</defs>
</svg>
