<svg width="45" height="45" viewBox="0 0 45 45" fill="none" xmlns="http://www.w3.org/2000/svg">
<path d="M22.5 18.1905C21.048 16.6331 20.3906 15.2402 20.3906 14.4956C20.3906 13.481 21.337 12.6562 22.5 12.6562C23.663 12.6562 24.6094 13.481 24.6094 14.4949C24.6094 15.2395 23.952 16.6324 22.5 18.1905Z" fill="url(#paint0_linear_1401_1040)"/>
<path d="M15.5506 28.8281C14.801 28.8281 14.081 28.3936 13.6732 27.6933C13.3688 27.1723 13.2788 26.5598 13.425 26.0128C13.5488 25.5509 13.8321 25.1733 14.2238 24.949C14.607 24.7296 15.2489 24.6094 16.0308 24.6094C16.7782 24.6094 17.662 24.7219 18.5719 24.9293C17.9405 26.9677 17.051 28.234 16.3978 28.6059C16.1412 28.7536 15.8564 28.8281 15.5506 28.8281Z" fill="url(#paint1_linear_1401_1040)"/>
<path d="M22.5 4.21875C12.4193 4.21875 4.21875 12.42 4.21875 22.5C4.21875 32.58 12.4193 40.7812 22.5 40.7812C32.5807 40.7812 40.7812 32.58 40.7812 22.5C40.7812 12.42 32.5807 4.21875 22.5 4.21875ZM22.5 39.375C13.1955 39.375 5.625 31.8045 5.625 22.5C5.625 13.1955 13.1955 5.625 22.5 5.625C31.8045 5.625 39.375 13.1955 39.375 22.5C39.375 31.8045 31.8045 39.375 22.5 39.375ZM27.4219 14.4949C27.4219 11.9313 25.2141 9.84445 22.5 9.84375C19.7866 9.84375 17.5781 11.9306 17.5781 14.4949C17.5781 16.9882 19.8872 19.8162 22.0472 21.6309C22.1787 21.7406 22.339 21.7955 22.5 21.7955C22.661 21.7955 22.8213 21.7406 22.9528 21.6309C25.1135 19.8162 27.4219 16.9882 27.4219 14.4949ZM22.5 20.16C20.7872 18.611 18.9844 16.3434 18.9844 14.4949C18.9844 12.7055 20.5615 11.25 22.5 11.25C24.4385 11.2507 26.0156 12.7062 26.0156 14.4949C26.0156 16.3434 24.2128 18.611 22.5 20.16ZM21.3321 22.8115C18.6504 21.8468 15.0103 21.2611 12.8271 22.507C11.7809 23.1061 11.0278 24.0926 10.7093 25.2851C10.3704 26.5507 10.5652 27.945 11.2437 29.1094C12.1859 30.7238 13.8656 31.6392 15.5531 31.6392C16.3223 31.6392 17.0923 31.4487 17.7947 31.0472C19.9772 29.8005 21.2878 26.3805 21.7863 23.5962C21.8461 23.2601 21.6541 22.9275 21.3321 22.8115ZM17.0965 29.8273C15.5215 30.728 13.4416 30.0881 12.4587 28.4013C11.9672 27.5583 11.8245 26.5549 12.067 25.6486C12.2878 24.821 12.8067 24.1397 13.5246 23.7284C15.1495 22.8009 18.0562 23.2298 20.283 23.9414C19.7923 26.2027 18.7165 28.902 17.0965 29.8273ZM34.2907 25.2851C33.9715 24.0933 33.2191 23.1068 32.1715 22.5084C29.9897 21.2618 26.3482 21.8482 23.6679 22.8129C23.3459 22.9289 23.1539 23.2608 23.2137 23.5983C23.7115 26.3827 25.0207 29.802 27.2046 31.0493C27.9063 31.4501 28.6762 31.6406 29.4455 31.6406C31.1323 31.6406 32.8141 30.7245 33.7556 29.1108C34.4348 27.945 34.6296 26.5514 34.2907 25.2851ZM32.5399 28.4013C31.5562 30.0874 29.4757 30.7266 27.9021 29.828C26.2821 28.9027 25.2063 26.2027 24.7155 23.9421C26.9423 23.2305 29.8491 22.8009 31.4733 23.7291C32.1919 24.1397 32.7101 24.8217 32.9316 25.6486C33.1748 26.5556 33.0321 27.5583 32.5399 28.4013Z" fill="#00E35D"/>
<path d="M29.4478 28.8281C29.142 28.8281 28.8565 28.7536 28.5998 28.6066C27.9466 28.234 27.0579 26.967 26.4258 24.9293C27.3363 24.7219 28.2195 24.6094 28.9669 24.6094C29.7488 24.6094 30.3914 24.7303 30.7753 24.9497C31.1663 25.1726 31.4489 25.5502 31.5734 26.0128C31.7196 26.5584 31.6289 27.1709 31.3245 27.6926C30.9166 28.3929 30.1973 28.8281 29.4478 28.8281Z" fill="url(#paint2_linear_1401_1040)"/>
<defs>
<linearGradient id="paint0_linear_1401_1040" x1="22.5" y1="12.87" x2="22.5" y2="17.8643" gradientUnits="userSpaceOnUse">
<stop stop-color="#6DC7FF"/>
<stop offset="1" stop-color="#F0CDFF"/>
</linearGradient>
<linearGradient id="paint1_linear_1401_1040" x1="15.9647" y1="23.4169" x2="15.9647" y2="28.8457" gradientUnits="userSpaceOnUse">
<stop stop-color="#6DC7FF"/>
<stop offset="1" stop-color="#FBF1FF"/>
</linearGradient>
<linearGradient id="paint2_linear_1401_1040" x1="29.0337" y1="23.4169" x2="29.0337" y2="28.8457" gradientUnits="userSpaceOnUse">
<stop stop-color="#6DC7FF"/>
<stop offset="1" stop-color="#FCF3FF"/>
</linearGradient>
</defs>
</svg>
