<svg width="45" height="45" viewBox="0 0 45 45" fill="none" xmlns="http://www.w3.org/2000/svg">
<path d="M32.8011 16.5234C34.063 15.6083 35.0028 14.3172 35.486 12.8352C35.9691 11.3532 35.9708 9.75633 35.4908 8.2733C35.0108 6.79028 34.0737 5.49725 32.8137 4.57945C31.5538 3.66166 30.0357 3.1662 28.4769 3.16406H16.5238C14.965 3.1662 13.4469 3.66166 12.187 4.57945C10.927 5.49725 9.98992 6.79028 9.50989 8.2733C9.02986 9.75633 9.03154 11.3532 9.5147 12.8352C9.99786 14.3172 10.9377 15.6083 12.1996 16.5234C11.2522 17.2057 10.4806 18.1035 9.94841 19.1426C9.41621 20.1817 9.13867 21.3325 9.13867 22.5C9.13867 23.6675 9.41621 24.8183 9.94841 25.8574C10.4806 26.8965 11.2522 27.7943 12.1996 28.4766C11.1748 29.2171 10.3574 30.2084 9.82568 31.3554C9.29394 32.5025 9.06568 33.7668 9.16277 35.0274C9.25987 36.288 9.67906 37.5025 10.3802 38.5546C11.0813 39.6067 12.0409 40.4611 13.1669 41.036C14.293 41.6108 15.5478 41.8869 16.8111 41.8377C18.0745 41.7885 19.304 41.4156 20.382 40.7549C21.4599 40.0942 22.3501 39.1678 22.9672 38.0643C23.5844 36.9609 23.9078 35.7174 23.9066 34.4531V28.2832C24.6729 28.9298 25.5629 29.4135 26.5223 29.7049C27.4817 29.9962 28.4903 30.0891 29.4868 29.9778C30.4833 29.8666 31.4466 29.5535 32.3181 29.0577C33.1896 28.562 33.951 27.8939 34.5558 27.0942C35.1607 26.2945 35.5963 25.38 35.8361 24.4065C36.0759 23.4329 36.1149 22.4207 35.9507 21.4316C35.7865 20.4425 35.4226 19.4972 34.8811 18.6534C34.3396 17.8095 33.6319 17.0848 32.8011 16.5234ZM33.0472 10.5469C33.0426 11.7576 32.5596 12.9174 31.7035 13.7735C30.8474 14.6296 29.6876 15.1126 28.4769 15.1172H23.9066V5.97656H28.4769C29.6876 5.98119 30.8474 6.46419 31.7035 7.32029C32.5596 8.17639 33.0426 9.33618 33.0472 10.5469ZM11.9535 10.5469C11.9581 9.33618 12.4411 8.17639 13.2972 7.32029C14.1533 6.46419 15.3131 5.98119 16.5238 5.97656H21.0941V15.1172H16.5238C15.3131 15.1126 14.1533 14.6296 13.2972 13.7735C12.4411 12.9174 11.9581 11.7576 11.9535 10.5469ZM11.9535 22.5C11.9581 21.2893 12.4411 20.1295 13.2972 19.2734C14.1533 18.4173 15.3131 17.9343 16.5238 17.9297H21.0941V27.0703H16.5238C15.3131 27.0657 14.1533 26.5827 13.2972 25.7266C12.4411 24.8705 11.9581 23.7107 11.9535 22.5ZM16.5238 39.0234C15.3117 39.0234 14.1492 38.5419 13.2921 37.6848C12.435 36.8277 11.9535 35.6652 11.9535 34.4531C11.9535 33.241 12.435 32.0785 13.2921 31.2214C14.1492 30.3643 15.3117 29.8828 16.5238 29.8828H21.0941V34.4531C21.0895 35.6638 20.6065 36.8236 19.7504 37.6797C18.8943 38.5358 17.7345 39.0188 16.5238 39.0234ZM28.4769 27.0703C27.2648 27.0703 26.1023 26.5888 25.2452 25.7317C24.3881 24.8746 23.9066 23.7121 23.9066 22.5C23.9066 21.2879 24.3881 20.1254 25.2452 19.2683C26.1023 18.4112 27.2648 17.9297 28.4769 17.9297C29.689 17.9297 30.8515 18.4112 31.7086 19.2683C32.5657 20.1254 33.0472 21.2879 33.0472 22.5C33.0472 23.7121 32.5657 24.8746 31.7086 25.7317C30.8515 26.5888 29.689 27.0703 28.4769 27.0703Z" fill="#00E35D"/>
</svg>
