<svg width="30" height="31" viewBox="0 0 30 31" fill="none" xmlns="http://www.w3.org/2000/svg">
<path fill-rule="evenodd" clip-rule="evenodd" d="M11.25 22.127C11.25 21.6006 11.6693 21.1746 12.1875 21.1746C12.7057 21.1746 13.125 21.6006 13.125 22.127C13.125 22.6534 12.7057 23.0794 12.1875 23.0794C11.6693 23.0794 11.25 22.6534 11.25 22.127ZM20.4684 29.6362C20.2185 29.7088 19.9603 29.7609 19.6875 29.7609C18.1338 29.7609 16.875 28.4821 16.875 26.9037V23.4402C16.875 22.2442 17.6307 21.2286 18.6795 20.8546C20.6932 20.1674 22.5 18.4412 22.5 16.4128V14.5078C22.5 13.6052 22.1374 12.7647 21.5625 12.0455V9.89475C21.5625 8.8431 20.723 8.48292 19.6875 9.09143L18.251 9.93523C17.791 9.8141 17.3263 9.74594 16.875 9.74594H13.125C12.6739 9.74594 12.209 9.8141 11.749 9.93523L10.3125 9.09143C9.27727 8.48292 8.4375 8.8431 8.4375 9.89475V12.0455C7.86258 12.7647 7.5 13.6052 7.5 14.5078V16.4128C7.5 17.7985 8.34891 19.043 9.52605 19.9135L9.52488 19.9153C9.76934 20.0855 9.93182 20.3729 9.93182 20.6984C9.93182 21.2239 9.51135 21.6508 8.99432 21.6508C8.72947 21.6508 8.49193 21.5382 8.32166 21.3587C6.73852 20.1404 5.625 18.3789 5.625 16.4128V14.5078C5.625 13.4053 5.97727 12.3663 6.5625 11.4498V8.61453C6.5625 6.51121 8.24092 5.79086 10.3125 7.00764L11.9215 7.95328C12.3228 7.884 12.7249 7.8412 13.125 7.8412H16.875C17.2751 7.8412 17.677 7.884 18.0785 7.95328L19.6875 7.00764C21.7593 5.79092 23.4375 6.51121 23.4375 8.61453V11.4498C24.0225 12.3663 24.375 13.4053 24.375 14.5078V16.4128C24.375 19.2466 22.0752 21.6592 19.3634 22.6246C19.3602 22.6274 19.357 22.6348 19.3524 22.6358C18.9999 22.7734 18.75 23.1194 18.75 23.5258V26.9037C18.75 27.4302 19.1693 27.8561 19.6875 27.8561C19.7658 27.8561 19.8376 27.8338 19.91 27.8152C24.7247 25.8416 28.125 21.0593 28.125 15.4602C28.125 8.09626 22.2492 2.12697 15 2.12697C7.75107 2.12697 1.875 8.09626 1.875 15.4602C1.875 21.2583 5.5227 26.1783 10.6126 28.0133C10.6386 28.0161 10.6625 28.0273 10.6897 28.0273C10.9989 28.0273 11.2499 27.7715 11.2499 27.4581C11.2499 27.1437 10.9989 26.8889 10.6897 26.8889C10.683 26.8889 10.683 26.8833 10.6785 26.8805C7.56363 26.7959 7.56018 23.0794 6.5625 23.0794C6.0443 23.0794 5.625 22.6535 5.625 22.1271C5.625 21.6006 6.0443 21.1747 6.5625 21.1747C6.66141 21.1747 6.809 21.1747 7.03055 21.1747C8.90672 21.1747 8.63865 24.9842 11.25 24.9842C12.2852 24.9842 13.125 25.837 13.125 26.8889V28.5556C13.125 29.4754 12.391 30.2222 11.4841 30.2222C11.3852 30.2222 11.2921 30.2018 11.1978 30.1832C4.75799 28.4727 0 22.539 0 15.4602C0 7.0446 6.71584 0.222229 15 0.222229C23.2842 0.222229 30 7.0446 30 15.4602C30 21.9131 26.0454 27.4153 20.4684 29.6362Z" fill="white"/>
</svg>
