<svg width="45" height="45" viewBox="0 0 45 45" fill="none" xmlns="http://www.w3.org/2000/svg">
<path d="M38.4375 4.6875H6.5625L9.375 36.5625L22.5 40.3125L35.625 36.5625L38.4375 4.6875Z" fill="white"/>
<path d="M22.5 7.5V37.4048L32.9993 34.4055L35.343 7.5H22.5Z" fill="white"/>
<path d="M22.5 23.4375V19.6875H30.564L29.9048 30.4687L22.5 32.9077V28.9673L26.3452 27.6562L26.6235 23.4375H22.5ZM30.8423 15.9375L31.1243 12.1875H22.5V15.9375H30.8423Z" fill="#082032"/>
<path d="M22.5005 28.9673V32.9077L15.0957 30.4687L14.7185 25.3125H18.4685L18.6553 27.6562L22.5005 28.9673ZM17.9082 15.9375H22.5005V12.1875H13.9678L14.627 23.4375H22.5005V19.6875H18.1865L17.9082 15.9375Z" fill="#082032"/>
</svg>
