<svg width="30" height="31" viewBox="0 0 30 31" fill="none" xmlns="http://www.w3.org/2000/svg">
<path fill-rule="evenodd" clip-rule="evenodd" d="M10.3059 18.975C10.8225 18.975 11.2402 19.3936 11.2402 19.9093C11.2402 20.4249 10.822 20.843 10.3059 20.843C9.79031 20.843 9.37219 20.4249 9.37219 19.9093C9.37219 19.3936 9.79078 18.975 10.3059 18.975ZM7.56797 16.2999C6.97688 12.1988 9.82266 8.39582 13.9237 7.80473C18.0248 7.21364 21.8283 10.0594 22.4194 14.1605C23.0105 18.2616 20.1647 22.065 16.0636 22.6561C16.0177 22.6632 15.9736 22.6632 15.9281 22.6683L16.0669 22.6491C15.5541 22.7227 15.0797 22.3669 15.0052 21.8546C14.9316 21.3422 15.2873 20.8664 15.7997 20.7919L15.7983 20.7886C15.7997 20.7886 15.8006 20.7886 15.802 20.7886C18.877 20.3457 21.0094 17.4943 20.5664 14.4193C20.1234 11.3438 17.2725 9.21145 14.197 9.65442C11.1234 10.0974 8.98922 12.9488 9.43266 16.0238C9.43266 16.0252 9.43266 16.0261 9.43359 16.0261L9.43031 16.0275C9.50391 16.5399 9.14813 17.0147 8.63578 17.0888C8.12344 17.1624 7.64766 16.8071 7.57312 16.2947L7.59375 16.4344C7.58719 16.3885 7.57453 16.3454 7.56797 16.2999ZM22.4948 6.31832C22.4948 5.54114 23.1258 4.9102 23.9039 4.9102C24.6736 4.9102 25.2975 5.52801 25.3097 6.29676V6.34082C25.2975 7.10957 24.6736 7.72739 23.9039 7.72739C23.1258 7.72739 22.4948 7.09645 22.4948 6.31832ZM27.4973 27.6535C25.867 29.3007 23.6048 30.2222 19.6931 30.2222H10.3059C6.39422 30.2222 4.1325 29.3007 2.50313 27.6535C0.894375 26.0288 0 23.761 0 19.9163V10.5291C0 6.68301 0.894375 4.4166 2.50313 2.79192C4.1325 1.14426 6.39422 0.222229 10.3059 0.222229H19.6927C23.6048 0.222229 25.8666 1.14426 27.4969 2.79192C27.6014 2.89645 27.697 3.01129 27.7936 3.12473C27.9914 3.29629 28.1194 3.54754 28.1194 3.8302C28.1194 4.34817 27.6998 4.7677 27.1819 4.7677C26.8988 4.7677 26.6475 4.63926 26.4759 4.44051L26.4638 4.45035C26.3672 4.33551 26.2767 4.21645 26.1698 4.1091C24.7439 2.66723 22.6388 2.10145 19.215 2.10145H10.7798C7.35703 2.10145 5.25609 2.66723 3.83016 4.1091C2.4225 5.53082 1.875 7.6416 1.875 11.0058V19.4419C1.875 22.8075 2.4225 24.9127 3.83016 26.3339C5.25609 27.7754 7.35703 28.3472 10.7798 28.3472H19.2159C22.6397 28.3472 24.7448 27.7754 26.1708 26.3339C27.5784 24.9127 28.1203 22.8075 28.1203 19.4419V11.0063C28.1203 10.1869 28.0866 9.44395 28.0181 8.76567L28.0223 8.76473C27.9717 8.2477 28.3463 7.78551 28.8642 7.73067C29.3831 7.67723 29.8486 8.0541 29.9016 8.57207C29.903 8.58567 29.9016 8.59832 29.9016 8.61192H29.9039C29.9606 9.2091 30 9.83489 30 10.5291V19.9158C30 23.761 29.1047 26.0288 27.4973 27.6535Z" fill="white"/>
</svg>
