<svg width="45" height="45" viewBox="0 0 45 45" fill="none" xmlns="http://www.w3.org/2000/svg">
<path d="M16.6993 34.3597C9.94275 36.2357 20.8082 40.1138 29.4105 36.4499C28.0015 35.9033 26.9935 35.2771 26.9935 35.2771C23.1566 35.9967 21.3768 36.0544 17.8941 35.6589C15.0184 35.332 16.6993 34.3597 16.6993 34.3597Z" fill="url(#paint0_linear_1401_1132)"/>
<path d="M28.3803 30.6656C23.2992 31.6241 20.3603 31.5939 16.6387 31.2177C13.763 30.9265 15.6472 29.5587 15.6472 29.5587C8.20396 31.9812 19.789 34.725 30.1903 31.745C29.0835 31.3632 28.3803 30.6656 28.3803 30.6656Z" fill="url(#paint1_linear_1401_1132)"/>
<path d="M32.3679 9.40979C32.3679 9.40979 17.2232 13.1589 24.4577 21.4178C26.5918 23.8541 23.8974 26.0431 23.8974 26.0431C23.8974 26.0431 29.3137 23.2718 26.8253 19.8001C24.5017 16.5646 22.7191 14.9551 32.3679 9.40979Z" fill="url(#paint2_linear_1401_1132)"/>
<path d="M35.8865 37.9083C35.8865 37.9083 37.1307 38.9273 34.5187 39.7156C29.5529 41.2125 13.8507 41.6629 9.48911 39.776C7.92082 39.0976 10.8597 38.1555 11.7853 37.9578C12.7521 37.749 13.3014 37.7875 13.3014 37.7875C11.5573 36.568 2.0294 40.188 8.46189 41.2235C26.0043 44.0525 40.4376 39.9491 35.8865 37.9083Z" fill="url(#paint3_linear_1401_1132)"/>
<path d="M29.8581 27.2571C30.7013 26.683 31.8658 26.1832 31.8658 26.1832C31.8658 26.1832 28.5479 26.7764 25.241 27.0538C21.1981 27.3917 16.8557 27.4576 14.6777 27.1664C9.51687 26.4798 17.5067 24.5874 17.5067 24.5874C17.5067 24.5874 14.403 24.3787 10.588 26.2189C6.07815 28.3942 21.7474 29.3857 29.8581 27.2571Z" fill="url(#paint4_linear_1401_1132)"/>
<path d="M31.8355 32.8189C31.7971 32.926 31.668 33.0469 31.668 33.0469C42.7092 29.9872 38.6498 22.2638 33.3736 24.2194C32.9094 24.3924 32.665 24.7934 32.665 24.7934C32.665 24.7934 32.9561 24.6698 33.6125 24.527C36.2795 23.9392 40.1027 28.2898 31.8355 32.8189Z" fill="url(#paint5_linear_1401_1132)"/>
<path d="M22.6594 24.5078C21.0472 20.8438 15.576 17.6413 22.6622 12.019C31.4952 5.01251 26.9606 0.455933 26.9606 0.455933C28.7898 7.69318 20.5116 9.87945 17.5233 14.3866C15.4881 17.4573 18.5231 20.7587 22.6594 24.5078Z" fill="url(#paint6_linear_1401_1132)"/>
<path d="M32.1288 42.6846C25.375 43.9535 17.0446 43.8052 12.1035 42.9922C12.1035 42.9922 13.1143 43.8272 18.3163 44.1595C26.2292 44.6649 38.3828 43.8794 38.6712 40.144C38.6712 40.144 38.1191 41.5585 32.1288 42.6846Z" fill="url(#paint7_linear_1401_1132)"/>
<defs>
<linearGradient id="paint0_linear_1401_1132" x1="21.9988" y1="2.37868" x2="21.9988" y2="44.2301" gradientUnits="userSpaceOnUse">
<stop stop-color="#2AF598"/>
<stop offset="1" stop-color="#009EFD"/>
</linearGradient>
<linearGradient id="paint1_linear_1401_1132" x1="21.7363" y1="2.74992" x2="21.7363" y2="44.0023" gradientUnits="userSpaceOnUse">
<stop stop-color="#2AF598"/>
<stop offset="1" stop-color="#009EFD"/>
</linearGradient>
<linearGradient id="paint2_linear_1401_1132" x1="27.434" y1="2.25914" x2="27.434" y2="44.2666" gradientUnits="userSpaceOnUse">
<stop stop-color="#2AF598"/>
<stop offset="1" stop-color="#009EFD"/>
</linearGradient>
<linearGradient id="paint3_linear_1401_1132" x1="21.497" y1="2.37166" x2="21.497" y2="44.2456" gradientUnits="userSpaceOnUse">
<stop stop-color="#2AF598"/>
<stop offset="1" stop-color="#009EFD"/>
</linearGradient>
<linearGradient id="paint4_linear_1401_1132" x1="20.8279" y1="2.25913" x2="20.8279" y2="44.2666" gradientUnits="userSpaceOnUse">
<stop stop-color="#2AF598"/>
<stop offset="1" stop-color="#009EFD"/>
</linearGradient>
<linearGradient id="paint5_linear_1401_1132" x1="35.1702" y1="0.702415" x2="35.1702" y2="45.2025" gradientUnits="userSpaceOnUse">
<stop stop-color="#2AF598"/>
<stop offset="1" stop-color="#009EFD"/>
</linearGradient>
<linearGradient id="paint6_linear_1401_1132" x1="22.5001" y1="2.25914" x2="22.5001" y2="44.2666" gradientUnits="userSpaceOnUse">
<stop stop-color="#2AF598"/>
<stop offset="1" stop-color="#009EFD"/>
</linearGradient>
<linearGradient id="paint7_linear_1401_1132" x1="25.3864" y1="2.25847" x2="25.3864" y2="44.2673" gradientUnits="userSpaceOnUse">
<stop stop-color="#2AF598"/>
<stop offset="1" stop-color="#009EFD"/>
</linearGradient>
</defs>
</svg>
