<svg width="45" height="45" viewBox="0 0 45 45" fill="none" xmlns="http://www.w3.org/2000/svg">
<path d="M37.0967 6.17344C36.9596 6.02578 36.7698 5.94141 36.5659 5.94141H8.43382C8.22991 5.94141 8.04007 6.02578 7.90296 6.17344C7.76585 6.32461 7.69905 6.52148 7.71663 6.72539L10.2514 35.1105C10.2795 35.4094 10.4834 35.659 10.7717 35.7398L22.2994 39.034C22.3627 39.0516 22.4295 39.0586 22.4963 39.0586C22.5631 39.0586 22.6299 39.0516 22.6932 39.034L34.2315 35.7398C34.5162 35.659 34.7237 35.4094 34.7483 35.1105L37.283 6.72539C37.3006 6.52148 37.2338 6.32461 37.0967 6.17344ZM13.1412 25.3828L18.1791 26.782V12.4207H21.0584V31.1414L13.1412 28.9441V25.3828ZM31.8971 20.3414L31.1412 29.1586L23.9412 31.1414V27.8262L28.7998 26.4902L28.9791 23.7902L23.9412 24.6586V12.4207H32.5791L32.333 15.3H26.8205V21.0586L31.8971 20.3414Z" fill="white"/>
</svg>
