<svg width="30" height="30" viewBox="0 0 30 30" fill="none" xmlns="http://www.w3.org/2000/svg">
<path fill-rule="evenodd" clip-rule="evenodd" d="M27.6564 30H22.9694C21.8341 30 20.8879 29.1401 20.6718 27.9975C20.6558 27.9975 20.6412 27.9999 20.6251 27.9999V18.9503C20.6251 17.8727 19.7856 17.0006 18.7502 17.0006C17.7147 17.0006 16.8752 17.8727 16.8752 18.9503V27.4741V27.5009C16.8752 28.1108 16.6614 28.6601 16.3222 29.0952C16.1358 29.396 15.8177 29.5942 15.4547 29.5942C14.8798 29.5942 14.4142 29.0976 14.4142 28.4843C14.4142 28.1601 14.5465 27.8711 14.7557 27.6679C14.9072 27.4897 15.0006 27.2588 15.0006 27.0009V25.5712V23.5125V18.8571C15.0006 16.7271 16.6792 15 18.7501 15C20.821 15 22.5006 16.7271 22.5006 18.8571V25.5712C22.5006 25.6429 22.4942 25.705 22.49 25.7709C22.4932 25.7699 22.4973 25.7699 22.5006 25.7684V27.0009C22.5006 27.5527 22.9199 27.9999 23.4381 27.9999H27.1876C27.7058 27.9999 28.1251 27.5527 28.1251 27.0009V18.0006C28.1251 17.9254 28.1168 17.8536 28.1022 17.7833C27.8614 13.4404 24.6105 9.99938 20.6251 9.99938C18.9708 9.99938 17.4474 10.598 16.2096 11.6029C16.205 11.6005 16.2 11.6015 16.1904 11.6093C16.0645 11.7172 15.9057 11.7812 15.7327 11.7812C15.3275 11.7812 15.0007 11.4311 15.0007 10.9994C15.0007 10.9458 14.9977 10.9179 14.9924 10.9101C14.9492 10.4008 14.5518 9.99938 14.0632 9.99938H11.2503C10.215 9.99938 9.3751 10.8954 9.3751 11.9999V27.0009C9.3751 27.0907 9.38998 27.1772 9.41078 27.2598C9.38881 27.3315 9.3751 27.4111 9.3751 27.5009C9.3751 28.8813 8.32615 30 7.0311 30H6.85966H2.34394C1.05012 30 0 28.8813 0 27.5009V10.4994C0 9.119 1.05012 8.00031 2.34394 8.00031H4.68793C6.24044 8.00031 7.49974 6.657 7.49974 4.99969C7.49974 3.34244 6.24044 1.99913 4.68793 1.99913C3.13449 1.99913 1.87524 3.34244 1.87524 4.99969C1.87524 5.55244 1.45594 5.99969 0.937504 5.99969C0.42047 5.99969 0 5.55244 0 4.99969C0 2.23788 2.09907 0 4.68793 0C7.27702 0 9.37498 2.23788 9.37498 4.99969C9.37498 5.25313 9.35183 5.49969 9.31732 5.74337C9.30976 5.79025 9.30566 5.83856 9.29717 5.88544C9.25621 6.12862 9.2006 6.36788 9.12689 6.59737C9.1239 6.60862 9.11863 6.61888 9.11547 6.63006C8.95363 7.12669 8.72341 7.58663 8.43226 7.99925C7.57761 9.21119 6.22057 9.99931 4.68799 9.99931H2.81269C2.29448 9.99931 1.87518 10.4481 1.87518 10.9993V27.0007C1.87518 27.5526 2.29448 27.9998 2.81269 27.9998H7.54708C7.51661 27.8382 7.49968 27.6722 7.49968 27.5008V11.9999C7.49968 9.79087 9.17945 8.00031 11.2501 8.00031H14.5318C15.1109 8.00031 15.6373 8.22787 16.0456 8.60137C16.0506 8.60481 16.0557 8.59894 16.0612 8.60331C16.2251 8.75369 16.4375 8.84356 16.67 8.84356C16.7983 8.84356 16.92 8.81669 17.0303 8.76688C17.0637 8.75125 17.0838 8.75369 17.1031 8.75613C18.1916 8.28056 19.3753 8.00025 20.625 8.00025C25.4847 8.00025 29.48 11.9447 29.9528 16.9947C29.9844 17.1573 30 17.3277 30 17.5006V27.5009C30.0001 28.8813 28.9514 30 27.6564 30ZM12.1879 27.9999C12.7049 27.9999 13.1254 28.4482 13.1254 28.9999C13.1254 29.5527 12.705 30 12.1879 30C11.6697 30 11.2502 29.5527 11.2502 28.9999C11.2502 28.4482 11.6698 27.9999 12.1879 27.9999Z" fill="white"/>
</svg>
