<svg width="45" height="45" viewBox="0 0 45 45" fill="none" xmlns="http://www.w3.org/2000/svg">
<path d="M37.8844 30.735C33.255 36.9019 23.37 34.8206 17.0306 35.1188C17.0306 35.1188 15.9075 35.1825 14.7788 35.3681C14.7788 35.3681 15.2063 35.1863 15.7519 34.9969C20.2031 33.4575 22.3069 33.1481 25.0125 31.7588C30.0938 29.1563 35.1525 23.4844 36.1819 17.5931C34.2469 23.2594 28.3631 28.1363 23.0063 30.1163C19.3406 31.47 12.7088 32.7863 12.7069 32.7863C12.6168 32.7401 12.5274 32.6926 12.4388 32.6438C7.92938 30.45 7.79813 20.6813 15.99 17.5331C19.5825 16.1531 23.0156 16.9106 26.8988 15.9863C31.0388 15.0019 35.835 11.8988 37.7831 7.84125C39.9675 14.325 42.5925 24.465 37.8844 30.735ZM37.9631 5.835C37.4394 7.09078 36.7691 8.28027 35.9663 9.37875C34.221 7.57996 32.1322 6.15003 29.8238 5.17379C27.5154 4.19755 25.0345 3.69489 22.5281 3.69563C12.1725 3.69563 3.75 12.1181 3.75 22.4719C3.74879 25.0546 4.28206 27.6095 5.31627 29.9761C6.35047 32.3427 7.86323 34.4696 9.75938 36.2231L10.1719 36.5869C9.87121 36.2857 9.70246 35.8775 9.70272 35.4519C9.70298 35.0264 9.87224 34.6183 10.1733 34.3175C10.4743 34.0167 10.8825 33.8478 11.3081 33.8479C11.7336 33.848 12.1417 34.0171 12.4426 34.318C12.7435 34.6189 12.9126 35.027 12.9127 35.4526C12.9128 35.8781 12.7439 36.2863 12.4431 36.5873C12.1423 36.8884 11.7343 37.0576 11.3087 37.0579C10.8832 37.0582 10.4749 36.8894 10.1738 36.5888L10.4531 36.8363C13.8289 39.6903 18.1076 41.2543 22.5281 41.25C32.4244 41.25 40.5525 33.5475 41.2481 23.8275C41.7619 19.0669 40.3556 13.0219 37.9631 5.835Z" fill="url(#paint0_linear_1847_2)"/>
<defs>
<linearGradient id="paint0_linear_1847_2" x1="22.5518" y1="3.69563" x2="22.5518" y2="41.25" gradientUnits="userSpaceOnUse">
<stop stop-color="#2AF598"/>
<stop offset="1" stop-color="#009EFD" stop-opacity="0.83"/>
</linearGradient>
</defs>
</svg>
