<svg width="45" height="45" viewBox="0 0 45 45" fill="none" xmlns="http://www.w3.org/2000/svg">
<g clip-path="url(#clip0_1401_1047)">
<mask id="mask0_1401_1047" style="mask-type:luminance" maskUnits="userSpaceOnUse" x="0" y="0" width="45" height="45">
<path d="M31.7862 44.7529C32.1428 44.893 32.5243 44.9577 32.9069 44.9429C33.2894 44.9281 33.6648 44.8341 34.0098 44.6668L43.2385 40.1912C43.7138 39.9605 44.1148 39.5994 44.3955 39.1492C44.6761 38.699 44.825 38.1781 44.8249 37.6464V7.29868C44.825 6.76703 44.6761 6.24616 44.3954 5.796C44.1148 5.34584 43.7138 4.98467 43.2385 4.75405L34.01 0.278326C33.4885 0.0254234 32.9019 -0.0578467 32.3314 0.0400417C31.7609 0.13793 31.2347 0.412136 30.8257 0.824704L13.1584 17.0699L5.46273 11.1823C5.1156 10.9167 4.68717 10.782 4.25178 10.8015C3.81639 10.821 3.40151 10.9936 3.07914 11.2892L0.610994 13.5521C-0.202873 14.2981 -0.203752 15.5886 0.608885 16.3359L7.28277 22.4725L0.608885 28.609C-0.203752 29.3565 -0.202873 30.6468 0.610994 31.393L3.07914 33.6557C3.40149 33.9514 3.81636 34.1239 4.25175 34.1435C4.68714 34.163 5.11558 34.0283 5.46273 33.7628L13.1584 27.875L30.8257 44.1202C31.0988 44.3959 31.4259 44.6114 31.7862 44.7529ZM33.6255 12.2166L20.2201 22.4725L33.6255 32.7283V12.2166Z" fill="#0065A9"/>
</mask>
<g mask="url(#mask0_1401_1047)">
<path d="M43.2659 4.76096L34.03 0.279034C33.5084 0.0259268 32.9216 -0.0575207 32.3509 0.0402389C31.7801 0.137999 31.2537 0.412132 30.8443 0.824703L0.609214 28.609C-0.20395 29.3565 -0.202895 30.6468 0.611324 31.393L3.08105 33.6558C3.40369 33.9514 3.81882 34.124 4.25446 34.1435C4.6901 34.1631 5.1188 34.0284 5.46623 33.7628L41.8761 5.9237C43.0977 4.98986 44.8521 5.86789 44.8521 7.41313V7.30506C44.8521 6.77351 44.7032 6.25276 44.4226 5.8027C44.142 5.35264 43.7411 4.99155 43.2659 4.76096Z" fill="#00E35D"/>
</g>
<mask id="mask1_1401_1047" style="mask-type:luminance" maskUnits="userSpaceOnUse" x="0" y="0" width="45" height="45">
<path d="M31.7862 44.7529C32.1428 44.893 32.5243 44.9577 32.9069 44.9429C33.2894 44.9281 33.6648 44.8341 34.0098 44.6668L43.2385 40.1912C43.7138 39.9605 44.1148 39.5994 44.3955 39.1492C44.6761 38.699 44.825 38.1781 44.8249 37.6464V7.29868C44.825 6.76703 44.6761 6.24616 44.3954 5.796C44.1148 5.34584 43.7138 4.98467 43.2385 4.75405L34.01 0.278326C33.4885 0.0254234 32.9019 -0.0578467 32.3314 0.0400417C31.7609 0.13793 31.2347 0.412136 30.8257 0.824704L13.1584 17.0699L5.46273 11.1823C5.1156 10.9167 4.68717 10.782 4.25178 10.8015C3.81639 10.821 3.40151 10.9936 3.07914 11.2892L0.610994 13.5521C-0.202873 14.2981 -0.203752 15.5886 0.608885 16.3359L7.28277 22.4725L0.608885 28.609C-0.203752 29.3565 -0.202873 30.6468 0.610994 31.393L3.07914 33.6557C3.40149 33.9514 3.81636 34.1239 4.25175 34.1435C4.68714 34.163 5.11558 34.0283 5.46273 33.7628L13.1584 27.875L30.8257 44.1202C31.0988 44.3959 31.4259 44.6114 31.7862 44.7529ZM33.6255 12.2166L20.2201 22.4725L33.6255 32.7283V12.2166Z" fill="#007ACC"/>
</mask>
<g mask="url(#mask1_1401_1047)">
<path d="M43.2659 40.1839L34.03 44.6659C33.5084 44.9189 32.9216 45.0023 32.3509 44.9046C31.7802 44.8068 31.2537 44.5327 30.8443 44.1202L0.609214 16.3359C-0.20395 15.5886 -0.202895 14.2981 0.611324 13.5521L3.08105 11.2892C3.40371 10.9935 3.81885 10.821 4.25449 10.8015C4.69013 10.7819 5.11882 10.9167 5.46623 11.1823L41.8761 39.0212C43.0977 39.955 44.8521 39.077 44.8521 37.5316V37.6398C44.8521 38.1714 44.7032 38.6921 44.4226 39.1422C44.142 39.5922 43.741 39.9533 43.2659 40.1839Z" fill="#00E35D"/>
</g>
<mask id="mask2_1401_1047" style="mask-type:luminance" maskUnits="userSpaceOnUse" x="0" y="0" width="45" height="45">
<path d="M31.7862 44.7529C32.1428 44.893 32.5243 44.9577 32.9069 44.9429C33.2894 44.9281 33.6648 44.8341 34.0098 44.6668L43.2385 40.1912C43.7138 39.9605 44.1148 39.5994 44.3955 39.1492C44.6761 38.699 44.825 38.1781 44.8249 37.6464V7.29868C44.825 6.76703 44.6761 6.24616 44.3954 5.796C44.1148 5.34584 43.7138 4.98467 43.2385 4.75405L34.01 0.278326C33.4885 0.0254234 32.9019 -0.0578467 32.3314 0.0400417C31.7609 0.13793 31.2347 0.412136 30.8257 0.824704L13.1584 17.0699L5.46273 11.1823C5.1156 10.9167 4.68717 10.782 4.25178 10.8015C3.81639 10.821 3.40151 10.9936 3.07914 11.2892L0.610994 13.5521C-0.202873 14.2981 -0.203752 15.5886 0.608885 16.3359L7.28277 22.4725L0.608885 28.609C-0.203752 29.3565 -0.202873 30.6468 0.610994 31.393L3.07914 33.6557C3.40149 33.9514 3.81636 34.1239 4.25175 34.1435C4.68714 34.163 5.11558 34.0283 5.46273 33.7628L13.1584 27.875L30.8257 44.1202C31.0988 44.3959 31.4259 44.6114 31.7862 44.7529ZM33.6255 12.2166L20.2201 22.4725L33.6255 32.7283V12.2166Z" fill="#1F9CF0"/>
</mask>
<g mask="url(#mask2_1401_1047)">
<path d="M34.0005 44.6694C33.4787 44.9224 32.8919 45.0057 32.3211 44.9078C31.7504 44.81 31.2239 44.5358 30.8145 44.1232C31.8482 45.1649 33.6161 44.4271 33.6161 42.9534V1.99719C33.6161 0.523525 31.8482 -0.214369 30.8145 0.827541C31.2239 0.414936 31.7504 0.140733 32.3211 0.0428515C32.8919 -0.0550302 33.4787 0.0282455 34.0005 0.281163L43.2348 4.75689C43.7103 4.98735 44.1115 5.34845 44.3923 5.79863C44.6732 6.24881 44.8221 6.76976 44.8221 7.30152V37.6494C44.8221 38.7346 44.2051 39.7238 43.2348 40.194L34.0005 44.6694Z" fill="#00E35D"/>
</g>
</g>
<defs>
<clipPath id="clip0_1401_1047">
<rect width="45" height="45" fill="white"/>
</clipPath>
</defs>
</svg>
